<svg width="18" height="22" viewBox="0 0 18 22" fill="none" xmlns="http://www.w3.org/2000/svg">
<path fill-rule="evenodd" clip-rule="evenodd" d="M2.5 0C1.11929 0 0 1.11929 0 2.5V19.5C0 20.8807 1.11929 22 2.5 22H15.5C16.8807 22 18 20.8807 18 19.5V2.5C18 1.11929 16.8807 0 15.5 0H2.5ZM6.5 17.5V16.5H11.5V17.5H6.5ZM5 16C5 15.4477 5.44772 15 6 15H12C12.5523 15 13 15.4477 13 16V18C13 18.5523 12.5523 19 12 19H6C5.44772 19 5 18.5523 5 18V16ZM5 4C4.44772 4 4 4.44772 4 5V6C4 6.55228 4.44772 7 5 7C5.55228 7 6 6.55228 6 6V5C6 4.44772 5.55228 4 5 4ZM4 10C4 9.44771 4.44772 9 5 9C5.55228 9 6 9.44772 6 10V11C6 11.5523 5.55228 12 5 12C4.44772 12 4 11.5523 4 11V10ZM9 4C8.44771 4 8 4.44772 8 5V6C8 6.55228 8.44771 7 9 7C9.55228 7 10 6.55228 10 6V5C10 4.44772 9.55228 4 9 4ZM8 10C8 9.44771 8.44771 9 9 9C9.55228 9 10 9.44772 10 10V11C10 11.5523 9.55228 12 9 12C8.44771 12 8 11.5523 8 11V10ZM13 4C12.4477 4 12 4.44772 12 5V6C12 6.55228 12.4477 7 13 7C13.5523 7 14 6.55228 14 6V5C14 4.44772 13.5523 4 13 4ZM12 10C12 9.44771 12.4477 9 13 9C13.5523 9 14 9.44772 14 10V11C14 11.5523 13.5523 12 13 12C12.4477 12 12 11.5523 12 11V10Z" fill="currentColor"/>
</svg>
